<svg width="13" height="14" viewBox="0 0 13 14" fill="none" xmlns="http://www.w3.org/2000/svg">
<path d="M0.523438 6.01562C1.08594 4.375 2.63281 3.25 4.36719 3.25H8.42188L7.46094 2.28906C7.15625 2.00781 7.15625 1.51562 7.46094 1.23438C7.74219 0.929688 8.23438 0.929688 8.51562 1.23438L10.7656 3.48438C11.0703 3.76562 11.0703 4.25781 10.7656 4.53906L8.51562 6.78906C8.23438 7.09375 7.74219 7.09375 7.46094 6.78906C7.15625 6.50781 7.15625 6.01562 7.46094 5.73438L8.42188 4.75H4.36719C3.26562 4.75 2.30469 5.45312 1.95312 6.50781C1.8125 6.88281 1.39062 7.09375 0.992188 6.97656C0.617188 6.83594 0.40625 6.41406 0.523438 6.01562ZM12.4531 8.00781C11.8906 9.64844 10.3672 10.75 8.60938 10.75H4.55469L5.51562 11.7344C5.82031 12.0156 5.82031 12.5078 5.51562 12.7891C5.23438 13.0938 4.74219 13.0938 4.46094 12.7891L2.21094 10.5391C1.90625 10.2578 1.90625 9.76562 2.21094 9.48438L4.46094 7.23438C4.74219 6.92969 5.23438 6.92969 5.51562 7.23438C5.82031 7.51562 5.82031 8.00781 5.51562 8.28906L4.55469 9.25H8.60938C9.71094 9.25 10.6719 8.57031 11.0234 7.51562C11.1641 7.14062 11.5859 6.90625 11.9844 7.04688C12.3594 7.1875 12.5703 7.60938 12.4531 8.00781Z" fill="#111A3C"/>
</svg>
