<svg width="15" height="20" viewBox="0 0 15 20" fill="none" xmlns="http://www.w3.org/2000/svg">
<path d="M2.5 0H8.75V5C8.75 5.70312 9.29688 6.25 10 6.25H15V17.5C15 18.9062 13.8672 20 12.5 20H2.5C1.09375 20 0 18.9062 0 17.5V2.5C0 1.13281 1.09375 0 2.5 0ZM10 0L15 5H10V0ZM7.5 9.375C6.95312 9.375 6.5625 9.80469 6.5625 10.3125V12.1875H4.6875C4.14062 12.1875 3.75 12.6172 3.75 13.125C3.75 13.6719 4.14062 14.0625 4.6875 14.0625H6.5625V15.9375C6.5625 16.4844 6.95312 16.875 7.5 16.875C8.00781 16.875 8.4375 16.4844 8.4375 15.9375V14.0625H10.3125C10.8203 14.0625 11.25 13.6719 11.25 13.125C11.25 12.6172 10.8203 12.1875 10.3125 12.1875H8.4375V10.3125C8.4375 9.80469 8.00781 9.375 7.5 9.375Z" fill="white"/>
</svg>
